<svg width="724" height="400" viewBox="0 0 724 400" fill="none" xmlns="http://www.w3.org/2000/svg">
<rect x="2" y="2" width="720" height="396" rx="13" fill="white" stroke="#D31C10" stroke-width="4"/>
<path d="M194.182 251V157.909H211.045V236.864H252.045V251H194.182ZM346.239 204.455C346.239 214.485 344.36 223.076 340.602 230.227C336.875 237.348 331.784 242.803 325.33 246.591C318.905 250.379 311.617 252.273 303.466 252.273C295.314 252.273 288.011 250.379 281.557 246.591C275.133 242.773 270.042 237.303 266.284 230.182C262.557 223.03 260.693 214.455 260.693 204.455C260.693 194.424 262.557 185.848 266.284 178.727C270.042 171.576 275.133 166.106 281.557 162.318C288.011 158.53 295.314 156.636 303.466 156.636C311.617 156.636 318.905 158.53 325.33 162.318C331.784 166.106 336.875 171.576 340.602 178.727C344.36 185.848 346.239 194.424 346.239 204.455ZM329.284 204.455C329.284 197.394 328.178 191.439 325.966 186.591C323.784 181.712 320.754 178.03 316.875 175.545C312.996 173.03 308.527 171.773 303.466 171.773C298.405 171.773 293.936 173.03 290.057 175.545C286.178 178.03 283.133 181.712 280.92 186.591C278.739 191.439 277.648 197.394 277.648 204.455C277.648 211.515 278.739 217.485 280.92 222.364C283.133 227.212 286.178 230.894 290.057 233.409C293.936 235.894 298.405 237.136 303.466 237.136C308.527 237.136 312.996 235.894 316.875 233.409C320.754 230.894 323.784 227.212 325.966 222.364C328.178 217.485 329.284 211.515 329.284 204.455ZM424.545 187.636C423.788 185.182 422.742 182.985 421.409 181.045C420.106 179.076 418.53 177.394 416.682 176C414.864 174.606 412.773 173.561 410.409 172.864C408.045 172.136 405.47 171.773 402.682 171.773C397.682 171.773 393.227 173.03 389.318 175.545C385.409 178.061 382.333 181.758 380.091 186.636C377.879 191.485 376.773 197.394 376.773 204.364C376.773 211.394 377.879 217.348 380.091 222.227C382.303 227.106 385.379 230.818 389.318 233.364C393.258 235.879 397.833 237.136 403.045 237.136C407.773 237.136 411.864 236.227 415.318 234.409C418.803 232.591 421.485 230.015 423.364 226.682C425.242 223.318 426.182 219.379 426.182 214.864L430 215.455H404.727V202.273H442.5V213.455C442.5 221.424 440.803 228.318 437.409 234.136C434.015 239.955 429.348 244.439 423.409 247.591C417.47 250.712 410.652 252.273 402.955 252.273C394.379 252.273 386.848 250.348 380.364 246.5C373.909 242.621 368.864 237.121 365.227 230C361.621 222.848 359.818 214.364 359.818 204.545C359.818 197.03 360.879 190.318 363 184.409C365.152 178.5 368.152 173.485 372 169.364C375.848 165.212 380.364 162.061 385.545 159.909C390.727 157.727 396.364 156.636 402.455 156.636C407.606 156.636 412.409 157.394 416.864 158.909C421.318 160.394 425.273 162.515 428.727 165.273C432.212 168.03 435.076 171.303 437.318 175.091C439.561 178.879 441.03 183.061 441.727 187.636H424.545ZM541.989 204.455C541.989 214.485 540.11 223.076 536.352 230.227C532.625 237.348 527.534 242.803 521.08 246.591C514.655 250.379 507.367 252.273 499.216 252.273C491.064 252.273 483.761 250.379 477.307 246.591C470.883 242.773 465.792 237.303 462.034 230.182C458.307 223.03 456.443 214.455 456.443 204.455C456.443 194.424 458.307 185.848 462.034 178.727C465.792 171.576 470.883 166.106 477.307 162.318C483.761 158.53 491.064 156.636 499.216 156.636C507.367 156.636 514.655 158.53 521.08 162.318C527.534 166.106 532.625 171.576 536.352 178.727C540.11 185.848 541.989 194.424 541.989 204.455ZM525.034 204.455C525.034 197.394 523.928 191.439 521.716 186.591C519.534 181.712 516.504 178.03 512.625 175.545C508.746 173.03 504.277 171.773 499.216 171.773C494.155 171.773 489.686 173.03 485.807 175.545C481.928 178.03 478.883 181.712 476.67 186.591C474.489 191.439 473.398 197.394 473.398 204.455C473.398 211.515 474.489 217.485 476.67 222.364C478.883 227.212 481.928 230.894 485.807 233.409C489.686 235.894 494.155 237.136 499.216 237.136C504.277 237.136 508.746 235.894 512.625 233.409C516.504 230.894 519.534 227.212 521.716 222.364C523.928 217.485 525.034 211.515 525.034 204.455Z" fill="#D31C10"/>
</svg>
